M48
;Layer_Color=9474304
;FILE_FORMAT=2:5
INCH,LZ
;TYPE=PLATED
T1F00S00C0.01600
T2F00S00C0.03000
T3F00S00C0.03500
T4F00S00C0.03600
T5F00S00C0.03700
T6F00S00C0.04500
T7F00S00C0.05118
T8F00S00C0.05906
T9F00S00C0.08000
T10F00S00C0.10236
T11F00S00C0.13780
T12F00S00C0.14016
T13F00S00C0.15500
T14F00S00C0.21000
%
T01
X2337Y1698
X2355Y16945
X23695Y1688
X23825
X23855Y16935
X2416Y17095
X2421Y1681
X2699Y1682
X2701Y1665
X26995Y1703
X27875Y1705
X2802Y17045
X2808Y17055
X2806701Y17175
X2802
X2797Y1718
X27945Y169
X27895Y1673
X2826Y1667
X2815Y17055
X2813Y1718
X2822Y17175
X2839Y1704
X2846Y172
X28375Y17375
Y1743
X2837Y1748
Y17535
X28496Y17501
X2842Y17705
X28215Y1751
X2816Y17505
X282415Y173085
X2818Y17211
X28265Y1829
X283Y1834
X2845Y18295
X28435Y18215
X2852Y18225
X28505Y18365
X28515Y18425
X28425Y18715
X2815Y1874
X29005Y1855
X28885Y18365
X28774Y18044
X2927949Y1804551
X29095Y17625
X2795Y17495
Y17435
X2793Y1737
X27955Y1724
X2808Y17905
X2809713Y1817287
X28015Y1824
X2801279Y1831779
X28015Y1869
X28085Y18655
X2732Y1784
X27265Y17845
X26995Y178
Y1763
X27Y17435
X2701Y1723
X2662Y17375
X267Y1767
X2671Y1782
X26715Y1799
X27Y1798
X26425Y17995
X24765Y1812
X2353Y181
X23545Y1781
X2362583Y1771083
X23745Y1762
X2376Y1724
X2358Y1723
X2392Y1866
X2394Y1874
X23955Y1942
Y195
Y1957
X23515Y19655
X236Y1914
X25965Y19165
X25995Y1921
X2597Y19261
Y19315
X2641Y1958
X26545Y19795
X2623Y19805
X2641Y1999
Y20275
X2671Y20255
Y20005
X2676Y1983
X26895Y19805
X2671Y1957
X2793Y1882
X27925Y1875
X2807Y18905
X2815Y1882
X28275Y188
X2845Y1878
X28485Y1885
X28495Y1894
X28705Y1891
X28725Y18855
X2887Y18845
X2881Y19105
X2869Y19595
X2873Y19785
X2888Y19825
X28495Y19815
X28165Y19825
X2835Y20035
X28365Y203
X2867Y20035
X2835Y19595
X28665Y20315
X2874Y20525
X28875Y2054
X28495Y20535
X28375Y20745
X2835Y2096
X2867Y20965
Y2075
X2873Y21205
X28865Y2118
X28485Y21175
X2837Y21385
X2867Y2141
X2874Y2187
X2888Y21825
X2815Y21185
X2816Y20545
X269Y20505
X2676Y2052
X2671Y2072
X26705Y20895
X2676Y21155
X26905Y21145
X2671Y2133
X2674Y21855
X26845Y2186
X26875Y218
X27205Y2186
X27425Y21745
X2751Y2172
X2761Y2186
X2621Y2181
X2641Y21345
X26535Y21115
X26395Y2093
X2641Y20685
X26535Y2049
X26225Y20505
X2622Y2114
X25585Y2112
X2537Y214
X2532Y21525
X25075Y214
X251Y21215
X25035Y212
X2514Y2186
X2467Y218
X24725Y2148
X2475Y214
X24675Y21405
X24645Y2123
X24905Y212
Y2135
X2446Y21545
X2412Y2153
X2416Y214
X23895Y2135
Y2121
X23775Y212
X23645Y21205
X2361Y21325
X2366016Y2134984
X2348Y214
X235Y21525
X237Y218
X2362Y2106
X2391Y20865
X23925Y2078
X24095Y2076
X241Y20845
X2432Y20825
X24265Y2076
X2443Y20855
X2452Y2085
X2462Y208
X23365Y2078
X23415Y2123
Y2134
X232Y21525
X2384Y22085
X24109Y21996
X2488Y2209
X25065Y22005
X2626Y21875
X2642Y2192
X26715Y219
X2717263Y2197
X272Y2206
X2735Y2202
X2741Y21985
X27355Y22125
X2775Y2212
Y22025
X27805
X28145Y22015
X2826Y21895
X28475Y21915
X2867
X2887Y2188
T02
X2314Y2248
X2308Y2196
X2268Y2274
T03
X2358Y1672
X2509Y17475
X25415
X2571
X26035
X2603Y18215
X25705
X2541
X25085
X24285Y18335
Y1866
X2292Y1806
X24285Y18955
Y1928
X24725Y1939
Y19685
Y2001
Y19065
X25115Y19685
Y2001
Y20305
X25725
Y2001
Y19685
X27235Y1984
X27595Y2
Y20295
Y19675
X27855Y19835
X27755Y19125
X2746
X27135
X2808
X2906Y20175
X2908Y20375
X2907Y2101
X2925Y21645
X2817Y21625
X2796Y2122
X2791Y2054
X27595Y2062
X2719Y20515
X27145Y21145
X2635Y215
X25725Y2063
X25115
X22825
Y20955
Y2125
Y21575
X2268Y2196
X2308Y2274
X2354Y2248
X26475Y2264
Y22315
X276Y22345
Y2267
X28805Y2268
Y22355
X29255Y2235
Y22675
X2925Y2197
T04
X24854Y22334
X24754
X23954
X23854
X25654
X25754
X27074Y22354
X27174
X27914
X28014
T05
X2898Y1704
X2888
Y1694
X2898
Y1684
X2888
T06
X2468Y17105
X2458Y17095
X24585Y1675
X24685Y1676
X2468Y17465
X2458Y17455
Y17815
X2468Y17825
T07
X2219528Y1742
X2160472
X2109528
X2050472
T08
X2241996Y183724
X2074004
Y189224
Y191976
Y197476
X2241996
Y191976
Y1892279
X2206Y2096181
X209
Y2243819
X2206
T09
X24654Y22534
X24154
X23754
X25054
X25554
X25954
X26974Y22554
X27374
X27814
X28214
T10
X219Y1742
X208
T11
X205Y167
X285
X205Y227
X285
T12
X2245598Y1796551
X2070402
Y2015449
X2246583
T13
X2148378Y1698
X2093622
X2046378
X2195622
T14
X2172Y1698
X207
M30
