%FSLAX25Y25*%
%MOIN*%
G70*
G01*
G75*
G04 Layer_Color=16711935*
%ADD10R,0.03800X0.03200*%
%ADD11R,0.03200X0.03800*%
%ADD12R,0.11811X0.03937*%
%ADD13R,0.07087X0.13386*%
%ADD14O,0.01800X0.05118*%
%ADD15O,0.05118X0.01800*%
%ADD16R,0.13386X0.07087*%
%ADD17R,0.07087X0.04331*%
%ADD18R,0.03937X0.04331*%
%ADD19O,0.08661X0.02362*%
%ADD20O,0.06102X0.01378*%
%ADD21R,0.04724X0.01181*%
%ADD22R,0.02165X0.03740*%
%ADD23R,0.09449X0.03937*%
%ADD24R,0.09449X0.12992*%
%ADD25R,0.21654X0.07874*%
%ADD26R,0.13780X0.08071*%
%ADD27R,0.15748X0.08071*%
%ADD28R,0.08858X0.01969*%
%ADD29R,0.07600X0.12000*%
G04:AMPARAMS|DCode=30|XSize=216.54mil|YSize=78.74mil|CornerRadius=0mil|HoleSize=0mil|Usage=FLASHONLY|Rotation=180.000|XOffset=0mil|YOffset=0mil|HoleType=Round|Shape=Octagon|*
%AMOCTAGOND30*
4,1,8,-0.10827,0.01969,-0.10827,-0.01969,-0.08858,-0.03937,0.08858,-0.03937,0.10827,-0.01969,0.10827,0.01969,0.08858,0.03937,-0.08858,0.03937,-0.10827,0.01969,0.0*
%
%ADD30OCTAGOND30*%

%ADD31R,0.21654X0.07874*%
%ADD32R,0.13780X0.06299*%
%ADD33O,0.07480X0.01772*%
%ADD34R,0.09606X0.04409*%
G04:AMPARAMS|DCode=35|XSize=96.06mil|YSize=44.09mil|CornerRadius=0mil|HoleSize=0mil|Usage=FLASHONLY|Rotation=180.000|XOffset=0mil|YOffset=0mil|HoleType=Round|Shape=Octagon|*
%AMOCTAGOND35*
4,1,8,-0.04803,0.01102,-0.04803,-0.01102,-0.03701,-0.02205,0.03701,-0.02205,0.04803,-0.01102,0.04803,0.01102,0.03701,0.02205,-0.03701,0.02205,-0.04803,0.01102,0.0*
%
%ADD35OCTAGOND35*%

%ADD36C,0.00800*%
%ADD37C,0.03500*%
%ADD38C,0.05500*%
%ADD39C,0.06000*%
%ADD40C,0.08000*%
%ADD41C,0.02500*%
%ADD42C,0.01000*%
%ADD43C,0.01500*%
%ADD44C,0.02000*%
%ADD45C,0.04000*%
%ADD46C,0.01200*%
%ADD47C,0.01600*%
%ADD48C,0.09000*%
%ADD49C,0.06500*%
%ADD50C,0.06500*%
%ADD51C,0.06000*%
%ADD52R,0.12000X0.12000*%
%ADD53C,0.06200*%
%ADD54R,0.05800X0.05800*%
%ADD55C,0.05800*%
%ADD56P,0.10653X8X112.5*%
%ADD57C,0.09843*%
%ADD58C,0.14500*%
%ADD59C,0.08268*%
%ADD60R,0.08858X0.08858*%
%ADD61C,0.17716*%
%ADD62C,0.15748*%
G04:AMPARAMS|DCode=63|XSize=180mil|YSize=300mil|CornerRadius=0mil|HoleSize=0mil|Usage=FLASHONLY|Rotation=180.000|XOffset=0mil|YOffset=0mil|HoleType=Round|Shape=Octagon|*
%AMOCTAGOND63*
4,1,8,0.04500,-0.15000,-0.04500,-0.15000,-0.09000,-0.10500,-0.09000,0.10500,-0.04500,0.15000,0.04500,0.15000,0.09000,0.10500,0.09000,-0.10500,0.04500,-0.15000,0.0*
%
%ADD63OCTAGOND63*%

%ADD64P,0.25569X8X202.5*%
%ADD65C,0.04000*%
%ADD66C,0.03500*%
%ADD67C,0.03600*%
%ADD68C,0.07000*%
G04:AMPARAMS|DCode=69|XSize=85mil|YSize=85mil|CornerRadius=0mil|HoleSize=0mil|Usage=FLASHONLY|Rotation=0.000|XOffset=0mil|YOffset=0mil|HoleType=Round|Shape=Relief|Width=10mil|Gap=15mil|Entries=4|*
%AMTHD69*
7,0,0,0.08500,0.05500,0.01000,45*
%
%ADD69THD69*%
%ADD70C,0.08000*%
%ADD71C,0.13000*%
G04:AMPARAMS|DCode=72|XSize=86mil|YSize=86mil|CornerRadius=0mil|HoleSize=0mil|Usage=FLASHONLY|Rotation=0.000|XOffset=0mil|YOffset=0mil|HoleType=Round|Shape=Relief|Width=10mil|Gap=15mil|Entries=4|*
%AMTHD72*
7,0,0,0.08600,0.05600,0.01000,45*
%
%ADD72THD72*%
%ADD73C,0.08600*%
%ADD74C,0.08700*%
G04:AMPARAMS|DCode=75|XSize=87mil|YSize=87mil|CornerRadius=0mil|HoleSize=0mil|Usage=FLASHONLY|Rotation=0.000|XOffset=0mil|YOffset=0mil|HoleType=Round|Shape=Relief|Width=10mil|Gap=15mil|Entries=4|*
%AMTHD75*
7,0,0,0.08700,0.05700,0.01000,45*
%
%ADD75THD75*%
%ADD76C,0.10906*%
%ADD77C,0.15236*%
%ADD78C,0.10118*%
%ADD79C,0.09500*%
G04:AMPARAMS|DCode=80|XSize=95mil|YSize=95mil|CornerRadius=0mil|HoleSize=0mil|Usage=FLASHONLY|Rotation=0.000|XOffset=0mil|YOffset=0mil|HoleType=Round|Shape=Relief|Width=10mil|Gap=15mil|Entries=4|*
%AMTHD80*
7,0,0,0.09500,0.06500,0.01000,45*
%
%ADD80THD80*%
%ADD81C,0.08500*%
%ADD82C,0.19016*%
G04:AMPARAMS|DCode=83|XSize=109.055mil|YSize=109.055mil|CornerRadius=0mil|HoleSize=0mil|Usage=FLASHONLY|Rotation=0.000|XOffset=0mil|YOffset=0mil|HoleType=Round|Shape=Relief|Width=10mil|Gap=15mil|Entries=4|*
%AMTHD83*
7,0,0,0.10906,0.07906,0.01000,45*
%
%ADD83THD83*%
G04:AMPARAMS|DCode=84|XSize=187.795mil|YSize=187.795mil|CornerRadius=0mil|HoleSize=0mil|Usage=FLASHONLY|Rotation=0.000|XOffset=0mil|YOffset=0mil|HoleType=Round|Shape=Relief|Width=10mil|Gap=15mil|Entries=4|*
%AMTHD84*
7,0,0,0.18779,0.15779,0.01000,45*
%
%ADD84THD84*%
%ADD85C,0.20500*%
%ADD86C,0.26000*%
G04:AMPARAMS|DCode=87|XSize=66mil|YSize=66mil|CornerRadius=0mil|HoleSize=0mil|Usage=FLASHONLY|Rotation=0.000|XOffset=0mil|YOffset=0mil|HoleType=Round|Shape=Relief|Width=10mil|Gap=15mil|Entries=4|*
%AMTHD87*
7,0,0,0.06600,0.03600,0.01000,45*
%
%ADD87THD87*%
%ADD88C,0.06600*%
%ADD89C,0.05000*%
%ADD90C,0.03000*%
%ADD91C,0.04600*%
%ADD92C,0.02362*%
%ADD93C,0.00984*%
%ADD94C,0.04134*%
%ADD95C,0.03937*%
%ADD96C,0.00600*%
%ADD97C,0.00787*%
%ADD98C,0.00300*%
%ADD99C,0.00600*%
%ADD100C,0.01969*%
%ADD101C,0.04921*%
%ADD102C,0.05906*%
%ADD103C,0.00200*%
%ADD104R,0.04400X0.03800*%
%ADD105R,0.03800X0.04400*%
%ADD106R,0.12411X0.04537*%
%ADD107R,0.07687X0.13986*%
%ADD108O,0.02400X0.05718*%
%ADD109O,0.05718X0.02400*%
%ADD110R,0.13986X0.07687*%
%ADD111R,0.07687X0.04931*%
%ADD112R,0.04537X0.04931*%
%ADD113O,0.09261X0.02962*%
%ADD114O,0.06702X0.01978*%
%ADD115R,0.05324X0.01781*%
%ADD116R,0.02765X0.04340*%
%ADD117R,0.10049X0.04537*%
%ADD118R,0.10049X0.13592*%
%ADD119R,0.22253X0.08474*%
%ADD120R,0.14379X0.08671*%
%ADD121R,0.16348X0.08671*%
%ADD122R,0.09458X0.02569*%
%ADD123R,0.08200X0.12600*%
G04:AMPARAMS|DCode=124|XSize=222.53mil|YSize=84.74mil|CornerRadius=0mil|HoleSize=0mil|Usage=FLASHONLY|Rotation=180.000|XOffset=0mil|YOffset=0mil|HoleType=Round|Shape=Octagon|*
%AMOCTAGOND124*
4,1,8,-0.11127,0.02119,-0.11127,-0.02119,-0.09008,-0.04237,0.09008,-0.04237,0.11127,-0.02119,0.11127,0.02119,0.09008,0.04237,-0.09008,0.04237,-0.11127,0.02119,0.0*
%
%ADD124OCTAGOND124*%

%ADD125R,0.22253X0.08474*%
%ADD126R,0.14379X0.06899*%
%ADD127O,0.08080X0.02372*%
%ADD128R,0.10206X0.05009*%
G04:AMPARAMS|DCode=129|XSize=102.06mil|YSize=50.09mil|CornerRadius=0mil|HoleSize=0mil|Usage=FLASHONLY|Rotation=180.000|XOffset=0mil|YOffset=0mil|HoleType=Round|Shape=Octagon|*
%AMOCTAGOND129*
4,1,8,-0.05103,0.01252,-0.05103,-0.01252,-0.03851,-0.02505,0.03851,-0.02505,0.05103,-0.01252,0.05103,0.01252,0.03851,0.02505,-0.03851,0.02505,-0.05103,0.01252,0.0*
%
%ADD129OCTAGOND129*%

%ADD130C,0.07100*%
%ADD131R,0.12600X0.12600*%
%ADD132C,0.06800*%
%ADD133R,0.06400X0.06400*%
%ADD134C,0.06400*%
%ADD135P,0.11303X8X112.5*%
%ADD136C,0.10443*%
%ADD137C,0.15100*%
%ADD138C,0.08868*%
%ADD139R,0.09458X0.09458*%
%ADD140C,0.18316*%
%ADD141C,0.16348*%
G04:AMPARAMS|DCode=142|XSize=186mil|YSize=306mil|CornerRadius=0mil|HoleSize=0mil|Usage=FLASHONLY|Rotation=180.000|XOffset=0mil|YOffset=0mil|HoleType=Round|Shape=Octagon|*
%AMOCTAGOND142*
4,1,8,0.04650,-0.15300,-0.04650,-0.15300,-0.09300,-0.10650,-0.09300,0.10650,-0.04650,0.15300,0.04650,0.15300,0.09300,0.10650,0.09300,-0.10650,0.04650,-0.15300,0.0*
%
%ADD142OCTAGOND142*%

%ADD143P,0.26218X8X202.5*%
%ADD144C,0.04200*%
%ADD145C,0.00100*%
%ADD146C,0.00700*%
D36*
X2884937Y1712888D02*
Y1711555D01*
Y1712222D01*
X2888935D01*
X2888269Y1712888D01*
X2894937Y1710222D02*
Y1712888D01*
X2897602Y1710222D01*
X2898269D01*
X2898935Y1710889D01*
Y1712222D01*
X2898269Y1712888D01*
X2888935Y1675223D02*
Y1677888D01*
X2886936D01*
X2887602Y1676555D01*
Y1675889D01*
X2886936Y1675223D01*
X2885603D01*
X2884937Y1675889D01*
Y1677222D01*
X2885603Y1677888D01*
X2898935Y1675223D02*
X2898269Y1676555D01*
X2896936Y1677888D01*
X2895603D01*
X2894937Y1677222D01*
Y1675889D01*
X2895603Y1675223D01*
X2896270D01*
X2896936Y1675889D01*
Y1677888D01*
D96*
X2637750Y1997450D02*
X2644200D01*
Y1985950D02*
Y1997450D01*
X2637750Y1985950D02*
X2644200D01*
X2637750D02*
Y1997450D01*
X2667750Y1999450D02*
X2674200D01*
Y1987950D02*
Y1999450D01*
X2667750Y1987950D02*
X2674200D01*
X2667750D02*
Y1999450D01*
X2624550Y1993750D02*
Y2000200D01*
X2636050D01*
Y1993750D02*
Y2000200D01*
X2624550Y1993750D02*
X2636050D01*
X2794750Y2222950D02*
X2801200D01*
Y2211450D02*
Y2222950D01*
X2794750Y2211450D02*
X2801200D01*
X2794750D02*
Y2222950D01*
X2754750D02*
X2761200D01*
Y2211450D02*
Y2222950D01*
X2754750Y2211450D02*
X2761200D01*
X2754750D02*
Y2222950D01*
X2416750Y2089450D02*
Y2100950D01*
Y2089450D02*
X2423200D01*
Y2100950D01*
X2416750D02*
X2423200D01*
X2465050Y2070750D02*
X2476550D01*
Y2077200D01*
X2465050D02*
X2476550D01*
X2465050Y2070750D02*
Y2077200D01*
X2708450Y1959750D02*
X2719950D01*
X2708450Y1953300D02*
Y1959750D01*
Y1953300D02*
X2719950D01*
Y1959750D01*
X2626450Y1949750D02*
X2637950D01*
X2626450Y1943300D02*
Y1949750D01*
Y1943300D02*
X2637950D01*
Y1949750D01*
X2708450Y2031750D02*
X2719950D01*
X2708450Y2025300D02*
Y2031750D01*
Y2025300D02*
X2719950D01*
Y2031750D01*
X2626450Y2021750D02*
X2637950D01*
X2626450Y2015300D02*
Y2021750D01*
Y2015300D02*
X2637950D01*
Y2021750D01*
X2626450Y2085750D02*
X2637950D01*
X2626450Y2079300D02*
Y2085750D01*
Y2079300D02*
X2637950D01*
Y2085750D01*
X2708450Y2095750D02*
X2719950D01*
X2708450Y2089300D02*
Y2095750D01*
Y2089300D02*
X2719950D01*
Y2095750D01*
X2617450Y2155250D02*
X2628950D01*
X2617450Y2148800D02*
Y2155250D01*
Y2148800D02*
X2628950D01*
Y2155250D01*
X2887050Y2152750D02*
X2898550D01*
Y2159200D01*
X2887050D02*
X2898550D01*
X2887050Y2152750D02*
Y2159200D01*
X2865050Y1946250D02*
X2876550D01*
Y1952700D01*
X2865050D02*
X2876550D01*
X2865050Y1946250D02*
Y1952700D01*
X2787050Y1954250D02*
X2798550D01*
Y1960700D01*
X2787050D02*
X2798550D01*
X2787050Y1954250D02*
Y1960700D01*
X2865050Y2016250D02*
X2876550D01*
Y2022700D01*
X2865050D02*
X2876550D01*
X2865050Y2016250D02*
Y2022700D01*
X2787050Y2026250D02*
X2798550D01*
Y2032700D01*
X2787050D02*
X2798550D01*
X2787050Y2026250D02*
Y2032700D01*
X2867050Y2082250D02*
X2878550D01*
Y2088700D01*
X2867050D02*
X2878550D01*
X2867050Y2082250D02*
Y2088700D01*
X2787050Y2090250D02*
X2798550D01*
Y2096700D01*
X2787050D02*
X2798550D01*
X2787050Y2090250D02*
Y2096700D01*
X2622050Y2102750D02*
Y2109200D01*
X2633550D01*
Y2102750D02*
Y2109200D01*
X2622050Y2102750D02*
X2633550D01*
X2624050Y1968750D02*
Y1975200D01*
X2635550D01*
Y1968750D02*
Y1975200D01*
X2624050Y1968750D02*
X2635550D01*
X2610050D02*
Y1975200D01*
X2621550D01*
Y1968750D02*
Y1975200D01*
X2610050Y1968750D02*
X2621550D01*
X2676050Y2038750D02*
Y2045200D01*
X2687550D01*
Y2038750D02*
Y2045200D01*
X2676050Y2038750D02*
X2687550D01*
X2690050D02*
Y2045200D01*
X2701550D01*
Y2038750D02*
Y2045200D01*
X2690050Y2038750D02*
X2701550D01*
X2637750Y2067450D02*
X2644200D01*
Y2055950D02*
Y2067450D01*
X2637750Y2055950D02*
X2644200D01*
X2637750D02*
Y2067450D01*
X2687950Y2064800D02*
Y2071250D01*
X2676450Y2064800D02*
X2687950D01*
X2676450D02*
Y2071250D01*
X2687950D01*
X2667750Y2069450D02*
X2674200D01*
Y2057950D02*
Y2069450D01*
X2667750Y2057950D02*
X2674200D01*
X2667750D02*
Y2069450D01*
X2624050Y2038750D02*
Y2045200D01*
X2635550D01*
Y2038750D02*
Y2045200D01*
X2624050Y2038750D02*
X2635550D01*
X2610050D02*
Y2045200D01*
X2621550D01*
Y2038750D02*
Y2045200D01*
X2610050Y2038750D02*
X2621550D01*
X2863750Y2001450D02*
X2870200D01*
Y1989950D02*
Y2001450D01*
X2863750Y1989950D02*
X2870200D01*
X2863750D02*
Y2001450D01*
X2834250Y2071950D02*
X2840700D01*
Y2060450D02*
Y2071950D01*
X2834250Y2060450D02*
X2840700D01*
X2834250D02*
Y2071950D01*
X2676050Y2102750D02*
Y2109200D01*
X2687550D01*
Y2102750D02*
Y2109200D01*
X2676050Y2102750D02*
X2687550D01*
X2689550Y2103250D02*
Y2109700D01*
X2701050D01*
Y2103250D02*
Y2109700D01*
X2689550Y2103250D02*
X2701050D01*
X2608050Y2102750D02*
Y2109200D01*
X2619550D01*
Y2102750D02*
Y2109200D01*
X2608050Y2102750D02*
X2619550D01*
X2622050Y2119750D02*
Y2126200D01*
X2633550D01*
Y2119750D02*
Y2126200D01*
X2622050Y2119750D02*
X2633550D01*
X2608050D02*
Y2126200D01*
X2619550D01*
Y2119750D02*
Y2126200D01*
X2608050Y2119750D02*
X2619550D01*
X2818050Y1970250D02*
Y1976700D01*
X2829550D01*
Y1970250D02*
Y1976700D01*
X2818050Y1970250D02*
X2829550D01*
X2804050D02*
Y1976700D01*
X2815550D01*
Y1970250D02*
Y1976700D01*
X2804050Y1970250D02*
X2815550D01*
X2818050Y1996250D02*
Y2002700D01*
X2829550D01*
Y1996250D02*
Y2002700D01*
X2818050Y1996250D02*
X2829550D01*
X2831750Y2001450D02*
X2838200D01*
Y1989950D02*
Y2001450D01*
X2831750Y1989950D02*
X2838200D01*
X2831750D02*
Y2001450D01*
X2888050Y2041250D02*
Y2047700D01*
X2899550D01*
Y2041250D02*
Y2047700D01*
X2888050Y2041250D02*
X2899550D01*
X2874050D02*
Y2047700D01*
X2885550D01*
Y2041250D02*
Y2047700D01*
X2874050Y2041250D02*
X2885550D01*
X2885950Y2069300D02*
Y2075750D01*
X2874450Y2069300D02*
X2885950D01*
X2874450D02*
Y2075750D01*
X2885950D01*
X2863750Y2073450D02*
X2870200D01*
Y2061950D02*
Y2073450D01*
X2863750Y2061950D02*
X2870200D01*
X2863750D02*
Y2073450D01*
X2818050Y2042750D02*
Y2049200D01*
X2829550D01*
Y2042750D02*
Y2049200D01*
X2818050Y2042750D02*
X2829550D01*
X2804050D02*
Y2049200D01*
X2815550D01*
Y2042750D02*
Y2049200D01*
X2804050Y2042750D02*
X2815550D01*
X2886050Y2105250D02*
Y2111700D01*
X2897550D01*
Y2105250D02*
Y2111700D01*
X2886050Y2105250D02*
X2897550D01*
X2872050D02*
Y2111700D01*
X2883550D01*
Y2105250D02*
Y2111700D01*
X2872050Y2105250D02*
X2883550D01*
X2883950Y2135300D02*
Y2141750D01*
X2872450Y2135300D02*
X2883950D01*
X2872450D02*
Y2141750D01*
X2883950D01*
X2804050Y2105250D02*
Y2111700D01*
X2815550D01*
Y2105250D02*
Y2111700D01*
X2804050Y2105250D02*
X2815550D01*
X2818050D02*
Y2111700D01*
X2829550D01*
Y2105250D02*
Y2111700D01*
X2818050Y2105250D02*
X2829550D01*
X2818050Y2125250D02*
Y2131700D01*
X2829550D01*
Y2125250D02*
Y2131700D01*
X2818050Y2125250D02*
X2829550D01*
X2399050Y2054750D02*
X2410550D01*
Y2061200D01*
X2399050D02*
X2410550D01*
X2399050Y2054750D02*
Y2061200D01*
X2451050Y2054750D02*
X2462550D01*
Y2061200D01*
X2451050D02*
X2462550D01*
X2451050Y2054750D02*
Y2061200D01*
X2455050Y2136750D02*
Y2143200D01*
X2466550D01*
Y2136750D02*
Y2143200D01*
X2455050Y2136750D02*
X2466550D01*
X2439050D02*
Y2143200D01*
X2450550D01*
Y2136750D02*
Y2143200D01*
X2439050Y2136750D02*
X2450550D01*
X2522750Y2118950D02*
X2529200D01*
Y2107450D02*
Y2118950D01*
X2522750Y2107450D02*
X2529200D01*
X2522750D02*
Y2118950D01*
X2512750D02*
X2519200D01*
Y2107450D02*
Y2118950D01*
X2512750Y2107450D02*
X2519200D01*
X2512750D02*
Y2118950D01*
X2535450Y2135800D02*
Y2142250D01*
X2523950Y2135800D02*
X2535450D01*
X2523950D02*
Y2142250D01*
X2535450D01*
X2519450Y2135800D02*
Y2142250D01*
X2507950Y2135800D02*
X2519450D01*
X2507950D02*
Y2142250D01*
X2519450D01*
X2454750Y2120950D02*
X2461200D01*
Y2109450D02*
Y2120950D01*
X2454750Y2109450D02*
X2461200D01*
X2454750D02*
Y2120950D01*
X2444750D02*
X2451200D01*
Y2109450D02*
Y2120950D01*
X2444750Y2109450D02*
X2451200D01*
X2444750D02*
Y2120950D01*
X2453050Y2186750D02*
X2464550D01*
Y2193200D01*
X2453050D02*
X2464550D01*
X2453050Y2186750D02*
Y2193200D01*
X2355050Y2186750D02*
X2366550D01*
Y2193200D01*
X2355050D02*
X2366550D01*
X2355050Y2186750D02*
Y2193200D01*
X2402750Y2118450D02*
X2409200D01*
Y2106950D02*
Y2118450D01*
X2402750Y2106950D02*
X2409200D01*
X2402750D02*
Y2118450D01*
X2393250D02*
X2399700D01*
Y2106950D02*
Y2118450D01*
X2393250Y2106950D02*
X2399700D01*
X2393250D02*
Y2118450D01*
X2399450Y2136300D02*
Y2142750D01*
X2387950Y2136300D02*
X2399450D01*
X2387950D02*
Y2142750D01*
X2399450D01*
X2414950Y2136300D02*
Y2142750D01*
X2403450Y2136300D02*
X2414950D01*
X2403450D02*
Y2142750D01*
X2414950D01*
X2330050Y2135750D02*
Y2142200D01*
X2341550D01*
Y2135750D02*
Y2142200D01*
X2330050Y2135750D02*
X2341550D01*
X2314050D02*
Y2142200D01*
X2325550D01*
Y2135750D02*
Y2142200D01*
X2314050Y2135750D02*
X2325550D01*
X2329750Y2117950D02*
X2336200D01*
Y2106450D02*
Y2117950D01*
X2329750Y2106450D02*
X2336200D01*
X2329750D02*
Y2117950D01*
X2319750D02*
X2326200D01*
Y2106450D02*
Y2117950D01*
X2319750Y2106450D02*
X2326200D01*
X2319750D02*
Y2117950D01*
X2572800Y2209050D02*
X2579250D01*
X2572800D02*
Y2220550D01*
X2579250D01*
Y2209050D02*
Y2220550D01*
X2557050Y2214750D02*
Y2221200D01*
X2568550D01*
Y2214750D02*
Y2221200D01*
X2557050Y2214750D02*
X2568550D01*
X2371050Y2212750D02*
Y2219200D01*
X2382550D01*
Y2212750D02*
Y2219200D01*
X2371050Y2212750D02*
X2382550D01*
X2392800Y2211050D02*
X2399250D01*
X2392800D02*
Y2222550D01*
X2399250D01*
Y2211050D02*
Y2222550D01*
X2687950Y1994300D02*
Y2000750D01*
X2676450Y1994300D02*
X2687950D01*
X2676450D02*
Y2000750D01*
X2687950D01*
X2885950Y1997300D02*
Y2003750D01*
X2874450Y1997300D02*
X2885950D01*
X2874450D02*
Y2003750D01*
X2885950D01*
X2624050Y2063750D02*
Y2070200D01*
X2635550D01*
Y2063750D02*
Y2070200D01*
X2624050Y2063750D02*
X2635550D01*
X2820050Y2069250D02*
Y2075700D01*
X2831550D01*
Y2069250D02*
Y2075700D01*
X2820050Y2069250D02*
X2831550D01*
X2804050Y2125250D02*
Y2131700D01*
X2815550D01*
Y2125250D02*
Y2131700D01*
X2804050Y2125250D02*
X2815550D01*
X2687950Y2128300D02*
Y2134750D01*
X2676450Y2128300D02*
X2687950D01*
X2676450D02*
Y2134750D01*
X2687950D01*
X2465050Y2210750D02*
Y2217200D01*
X2476550D01*
Y2210750D02*
Y2217200D01*
X2465050Y2210750D02*
X2476550D01*
X2266950Y2242500D02*
Y2257500D01*
Y2242500D02*
X2301450D01*
Y2257500D01*
X2266950D02*
X2301450D01*
X2310950Y2212500D02*
Y2227500D01*
Y2212500D02*
X2345450D01*
Y2227500D01*
X2310950D02*
X2345450D01*
X2266950Y2212500D02*
Y2227500D01*
Y2212500D02*
X2301450D01*
Y2227500D01*
X2266950D02*
X2301450D01*
X2292533Y2259731D02*
X2291867Y2259065D01*
X2290534D01*
X2289868Y2259731D01*
Y2260398D01*
X2290534Y2261064D01*
X2291200D01*
X2290534D01*
X2289868Y2261730D01*
Y2262397D01*
X2290534Y2263063D01*
X2291867D01*
X2292533Y2262397D01*
X2288535Y2259731D02*
X2287868Y2259065D01*
X2286535D01*
X2285869Y2259731D01*
Y2262397D01*
X2286535Y2263063D01*
X2287868D01*
X2288535Y2262397D01*
Y2259731D01*
X2284536Y2263063D02*
Y2259065D01*
Y2261730D02*
X2282537Y2260398D01*
X2284536Y2261730D02*
X2282537Y2263063D01*
X2274539Y2259065D02*
X2275872D01*
X2276538Y2259731D01*
Y2262397D01*
X2275872Y2263063D01*
X2274539D01*
X2273873Y2262397D01*
Y2259731D01*
X2274539Y2259065D01*
X2272540D02*
Y2263063D01*
Y2261064D01*
X2271873Y2260398D01*
X2270540D01*
X2269874Y2261064D01*
Y2263063D01*
X2268541D02*
Y2260398D01*
X2267875D01*
X2267208Y2261064D01*
Y2263063D01*
Y2261064D01*
X2266542Y2260398D01*
X2265875Y2261064D01*
Y2263063D01*
X2264542D02*
X2262543D01*
X2261877Y2262397D01*
X2262543Y2261730D01*
X2263876D01*
X2264542Y2261064D01*
X2263876Y2260398D01*
X2261877D01*
X2256545Y2263063D02*
X2255212D01*
X2255878D01*
Y2259065D01*
X2256545Y2259731D01*
X2253213Y2262397D02*
X2249880Y2259065D01*
X2253213D02*
Y2258398D01*
X2252546D01*
Y2259065D01*
X2253213D01*
X2250547Y2263063D02*
Y2262397D01*
X2249880D01*
Y2263063D01*
X2250547D01*
X2289034Y2248506D02*
X2289701Y2247840D01*
X2291034D01*
X2291700Y2248506D01*
Y2249173D01*
X2291034Y2249839D01*
X2289701D01*
X2289034Y2250505D01*
Y2251172D01*
X2289701Y2251838D01*
X2291034D01*
X2291700Y2251172D01*
X2287701Y2251838D02*
Y2247840D01*
X2286368Y2249173D01*
X2285036Y2247840D01*
Y2251838D01*
X2283703D02*
X2281037Y2249173D01*
X2279704Y2251838D02*
Y2247840D01*
X2277704D01*
X2277038Y2248506D01*
Y2249839D01*
X2277704Y2250505D01*
X2279704D01*
X2278371D02*
X2277038Y2251838D01*
X2275705Y2252505D02*
X2273039D01*
X2269041Y2251838D02*
X2271707D01*
X2269041Y2249173D01*
Y2248506D01*
X2269707Y2247840D01*
X2271040D01*
X2271707Y2248506D01*
X2265042Y2247840D02*
X2267708D01*
Y2249839D01*
X2266375Y2249173D01*
X2265708D01*
X2265042Y2249839D01*
Y2251172D01*
X2265708Y2251838D01*
X2267041D01*
X2267708Y2251172D01*
X2263709Y2251838D02*
X2262376D01*
X2263043D01*
Y2247840D01*
X2263709Y2248506D01*
X2257711Y2251838D02*
X2260377D01*
X2257711Y2249173D01*
Y2248506D01*
X2258377Y2247840D01*
X2259710D01*
X2260377Y2248506D01*
X2333034Y2218506D02*
X2333701Y2217840D01*
X2335034D01*
X2335700Y2218506D01*
Y2219172D01*
X2335034Y2219839D01*
X2333701D01*
X2333034Y2220505D01*
Y2221172D01*
X2333701Y2221838D01*
X2335034D01*
X2335700Y2221172D01*
X2331701Y2221838D02*
Y2217840D01*
X2330368Y2219172D01*
X2329036Y2217840D01*
Y2221838D01*
X2327703D02*
X2325037Y2219172D01*
X2323704Y2221838D02*
Y2217840D01*
X2321704D01*
X2321038Y2218506D01*
Y2219839D01*
X2321704Y2220505D01*
X2323704D01*
X2322371D02*
X2321038Y2221838D01*
X2319705Y2222505D02*
X2317039D01*
X2313041Y2221838D02*
X2315706D01*
X2313041Y2219172D01*
Y2218506D01*
X2313707Y2217840D01*
X2315040D01*
X2315706Y2218506D01*
X2309042Y2217840D02*
X2311708D01*
Y2219839D01*
X2310375Y2219172D01*
X2309708D01*
X2309042Y2219839D01*
Y2221172D01*
X2309708Y2221838D01*
X2311041D01*
X2311708Y2221172D01*
X2307709Y2221838D02*
X2306376D01*
X2307043D01*
Y2217840D01*
X2307709Y2218506D01*
X2301711Y2221838D02*
X2304377D01*
X2301711Y2219172D01*
Y2218506D01*
X2302377Y2217840D01*
X2303710D01*
X2304377Y2218506D01*
X2289034D02*
X2289701Y2217840D01*
X2291034D01*
X2291700Y2218506D01*
Y2219172D01*
X2291034Y2219839D01*
X2289701D01*
X2289034Y2220505D01*
Y2221172D01*
X2289701Y2221838D01*
X2291034D01*
X2291700Y2221172D01*
X2287701Y2221838D02*
Y2217840D01*
X2286368Y2219172D01*
X2285036Y2217840D01*
Y2221838D01*
X2283703D02*
X2281037Y2219172D01*
X2279704Y2221838D02*
Y2217840D01*
X2277704D01*
X2277038Y2218506D01*
Y2219839D01*
X2277704Y2220505D01*
X2279704D01*
X2278371D02*
X2277038Y2221838D01*
X2275705Y2222505D02*
X2273039D01*
X2269041Y2221838D02*
X2271707D01*
X2269041Y2219172D01*
Y2218506D01*
X2269707Y2217840D01*
X2271040D01*
X2271707Y2218506D01*
X2265042Y2217840D02*
X2267708D01*
Y2219839D01*
X2266375Y2219172D01*
X2265708D01*
X2265042Y2219839D01*
Y2221172D01*
X2265708Y2221838D01*
X2267041D01*
X2267708Y2221172D01*
X2263709Y2221838D02*
X2262376D01*
X2263043D01*
Y2217840D01*
X2263709Y2218506D01*
X2257711Y2221838D02*
X2260377D01*
X2257711Y2219172D01*
Y2218506D01*
X2258377Y2217840D01*
X2259710D01*
X2260377Y2218506D01*
D99*
X2778189Y1789842D02*
X2839213D01*
Y1770157D02*
Y1789842D01*
X2778189Y1770157D02*
X2839213D01*
X2778189D02*
Y1789842D01*
D145*
X2772350Y2227900D02*
Y2365400D01*
X2830400D01*
X2830450Y2227900D01*
X2772350D02*
X2830450D01*
X2688350D02*
Y2365400D01*
X2746400D01*
X2746450Y2227900D01*
X2688350D02*
X2746450D01*
X2546350Y2225900D02*
Y2363400D01*
X2604400D01*
X2604450Y2225900D01*
X2546350D02*
X2604450D01*
X2456350D02*
Y2363400D01*
X2514400D01*
X2514450Y2225900D01*
X2456350D02*
X2514450D01*
X2366350D02*
Y2363400D01*
X2424400D01*
X2424450Y2225900D01*
X2366350D02*
X2424450D01*
D146*
X2791400Y2239399D02*
Y2235400D01*
X2793399D01*
X2794066Y2236066D01*
Y2236733D01*
X2793399Y2237399D01*
X2791400D01*
X2793399D01*
X2794066Y2238066D01*
Y2238732D01*
X2793399Y2239399D01*
X2791400D01*
X2795399Y2235400D02*
Y2239399D01*
X2798064Y2235400D01*
Y2239399D01*
X2802063Y2238732D02*
X2801397Y2239399D01*
X2800064D01*
X2799397Y2238732D01*
Y2236066D01*
X2800064Y2235400D01*
X2801397D01*
X2802063Y2236066D01*
X2803396Y2237399D02*
X2806062D01*
X2807395Y2235400D02*
Y2239399D01*
X2809394D01*
X2810061Y2238732D01*
Y2237399D01*
X2809394Y2236733D01*
X2807395D01*
X2808728D02*
X2810061Y2235400D01*
X2811394D02*
X2812727D01*
X2812060D01*
Y2238066D01*
X2811394D01*
X2816059Y2234067D02*
X2816725D01*
X2817392Y2234734D01*
Y2238066D01*
X2815392D01*
X2814726Y2237399D01*
Y2236066D01*
X2815392Y2235400D01*
X2817392D01*
X2818724Y2239399D02*
Y2235400D01*
Y2237399D01*
X2819391Y2238066D01*
X2820724D01*
X2821390Y2237399D01*
Y2235400D01*
X2823390Y2238732D02*
Y2238066D01*
X2822723D01*
X2824056D01*
X2823390D01*
Y2236066D01*
X2824056Y2235400D01*
X2826056D02*
Y2238066D01*
X2827388Y2239399D01*
X2828721Y2238066D01*
Y2235400D01*
Y2237399D01*
X2826056D01*
X2830054Y2235400D02*
Y2238066D01*
X2832054D01*
X2832720Y2237399D01*
Y2235400D01*
X2835386Y2234067D02*
X2836052D01*
X2836719Y2234734D01*
Y2238066D01*
X2834719D01*
X2834053Y2237399D01*
Y2236066D01*
X2834719Y2235400D01*
X2836719D01*
X2838052D02*
X2839384D01*
X2838718D01*
Y2239399D01*
X2838052D01*
X2843383Y2235400D02*
X2842050D01*
X2841384Y2236066D01*
Y2237399D01*
X2842050Y2238066D01*
X2843383D01*
X2844050Y2237399D01*
Y2236733D01*
X2841384D01*
X2845383Y2237399D02*
X2848048D01*
X2849381Y2235400D02*
Y2239399D01*
X2851381D01*
X2852047Y2238732D01*
Y2237399D01*
X2851381Y2236733D01*
X2849381D01*
X2856046Y2238732D02*
X2855379Y2239399D01*
X2854046D01*
X2853380Y2238732D01*
Y2236066D01*
X2854046Y2235400D01*
X2855379D01*
X2856046Y2236066D01*
X2857379Y2239399D02*
Y2235400D01*
X2859378D01*
X2860044Y2236066D01*
Y2236733D01*
X2859378Y2237399D01*
X2857379D01*
X2859378D01*
X2860044Y2238066D01*
Y2238732D01*
X2859378Y2239399D01*
X2857379D01*
X2861377Y2237399D02*
X2864043D01*
X2868042Y2239399D02*
X2865376D01*
Y2237399D01*
X2866709Y2238066D01*
X2867376D01*
X2868042Y2237399D01*
Y2236066D01*
X2867376Y2235400D01*
X2866043D01*
X2865376Y2236066D01*
X2869375Y2238732D02*
X2870041Y2239399D01*
X2871374D01*
X2872041Y2238732D01*
Y2236066D01*
X2871374Y2235400D01*
X2870041D01*
X2869375Y2236066D01*
Y2238732D01*
X2875373Y2239399D02*
X2874040D01*
X2873374Y2238732D01*
Y2236066D01*
X2874040Y2235400D01*
X2875373D01*
X2876039Y2236066D01*
Y2238732D01*
X2875373Y2239399D01*
X2877372D02*
Y2235400D01*
Y2237399D01*
X2878039Y2238066D01*
X2879372D01*
X2880038Y2237399D01*
Y2235400D01*
X2881371D02*
Y2238066D01*
X2882037D01*
X2882704Y2237399D01*
Y2235400D01*
Y2237399D01*
X2883370Y2238066D01*
X2884037Y2237399D01*
Y2235400D01*
X2885370Y2237399D02*
X2888036D01*
X2889368Y2239399D02*
X2892034D01*
X2890701D01*
Y2235400D01*
X2895366D02*
X2894034D01*
X2893367Y2236066D01*
Y2237399D01*
X2894034Y2238066D01*
X2895366D01*
X2896033Y2237399D01*
Y2236733D01*
X2893367D01*
X2897366Y2238066D02*
Y2235400D01*
Y2236733D01*
X2898032Y2237399D01*
X2898699Y2238066D01*
X2899365D01*
X2901365Y2235400D02*
Y2238066D01*
X2902031D01*
X2902697Y2237399D01*
Y2235400D01*
Y2237399D01*
X2903364Y2238066D01*
X2904030Y2237399D01*
Y2235400D01*
X2905363D02*
X2906696D01*
X2906030D01*
Y2238066D01*
X2905363D01*
X2908695Y2235400D02*
Y2238066D01*
X2910695D01*
X2911361Y2237399D01*
Y2235400D01*
X2913361Y2238066D02*
X2914694D01*
X2915360Y2237399D01*
Y2235400D01*
X2913361D01*
X2912694Y2236066D01*
X2913361Y2236733D01*
X2915360D01*
X2917359Y2238732D02*
Y2238066D01*
X2916693D01*
X2918026D01*
X2917359D01*
Y2236066D01*
X2918026Y2235400D01*
X2920025D02*
X2921358D01*
X2920692D01*
Y2238066D01*
X2920025D01*
X2924024Y2235400D02*
X2925357D01*
X2926023Y2236066D01*
Y2237399D01*
X2925357Y2238066D01*
X2924024D01*
X2923357Y2237399D01*
Y2236066D01*
X2924024Y2235400D01*
X2927356D02*
Y2238066D01*
X2929355D01*
X2930022Y2237399D01*
Y2235400D01*
X2791400Y2250649D02*
Y2246650D01*
X2793399D01*
X2794066Y2247316D01*
Y2247983D01*
X2793399Y2248649D01*
X2791400D01*
X2793399D01*
X2794066Y2249316D01*
Y2249982D01*
X2793399Y2250649D01*
X2791400D01*
X2795399Y2246650D02*
Y2250649D01*
X2798064Y2246650D01*
Y2250649D01*
X2802063Y2249982D02*
X2801397Y2250649D01*
X2800064D01*
X2799397Y2249982D01*
Y2247316D01*
X2800064Y2246650D01*
X2801397D01*
X2802063Y2247316D01*
X2794066Y2261899D02*
X2791400D01*
Y2259899D01*
X2792733Y2260566D01*
X2793399D01*
X2794066Y2259899D01*
Y2258566D01*
X2793399Y2257900D01*
X2792066D01*
X2791400Y2258566D01*
X2798064Y2257900D02*
X2795399D01*
X2798064Y2260566D01*
Y2261232D01*
X2797398Y2261899D01*
X2796065D01*
X2795399Y2261232D01*
X2802063Y2257900D02*
X2799397D01*
X2802063Y2260566D01*
Y2261232D01*
X2801397Y2261899D01*
X2800064D01*
X2799397Y2261232D01*
X2803396Y2261899D02*
X2806062D01*
Y2261232D01*
X2803396Y2258566D01*
Y2257900D01*
X2807395D02*
X2808728D01*
X2808061D01*
Y2261899D01*
X2807395Y2261232D01*
X2813393Y2261899D02*
X2812060Y2261232D01*
X2810727Y2259899D01*
Y2258566D01*
X2811394Y2257900D01*
X2812727D01*
X2813393Y2258566D01*
Y2259233D01*
X2812727Y2259899D01*
X2810727D01*
X2814726Y2257900D02*
X2816059D01*
X2815392D01*
Y2261899D01*
X2814726Y2261232D01*
X2818058Y2259899D02*
X2820724D01*
X2822057Y2257900D02*
X2823390D01*
X2822723D01*
Y2261899D01*
X2822057Y2261232D01*
X2794066Y2272482D02*
X2793399Y2273149D01*
X2792066D01*
X2791400Y2272482D01*
Y2269816D01*
X2792066Y2269150D01*
X2793399D01*
X2794066Y2269816D01*
X2797398Y2273149D02*
X2796065D01*
X2795399Y2272482D01*
Y2269816D01*
X2796065Y2269150D01*
X2797398D01*
X2798064Y2269816D01*
Y2272482D01*
X2797398Y2273149D01*
X2799397Y2269150D02*
Y2273149D01*
X2802063Y2269150D01*
Y2273149D01*
X2803396Y2269816D02*
X2804063Y2269150D01*
X2805396D01*
X2806062Y2269816D01*
Y2272482D01*
X2805396Y2273149D01*
X2804063D01*
X2803396Y2272482D01*
Y2271816D01*
X2804063Y2271149D01*
X2806062D01*
X2707400Y2239399D02*
Y2235400D01*
X2709399D01*
X2710066Y2236066D01*
Y2236733D01*
X2709399Y2237399D01*
X2707400D01*
X2709399D01*
X2710066Y2238066D01*
Y2238732D01*
X2709399Y2239399D01*
X2707400D01*
X2711399Y2235400D02*
Y2239399D01*
X2714064Y2235400D01*
Y2239399D01*
X2718063Y2238732D02*
X2717397Y2239399D01*
X2716064D01*
X2715397Y2238732D01*
Y2236066D01*
X2716064Y2235400D01*
X2717397D01*
X2718063Y2236066D01*
X2719396Y2237399D02*
X2722062D01*
X2723395Y2235400D02*
Y2239399D01*
X2725394D01*
X2726061Y2238732D01*
Y2237399D01*
X2725394Y2236733D01*
X2723395D01*
X2724728D02*
X2726061Y2235400D01*
X2727394D02*
X2728727D01*
X2728060D01*
Y2238066D01*
X2727394D01*
X2732059Y2234067D02*
X2732725D01*
X2733392Y2234734D01*
Y2238066D01*
X2731392D01*
X2730726Y2237399D01*
Y2236066D01*
X2731392Y2235400D01*
X2733392D01*
X2734724Y2239399D02*
Y2235400D01*
Y2237399D01*
X2735391Y2238066D01*
X2736724D01*
X2737390Y2237399D01*
Y2235400D01*
X2739390Y2238732D02*
Y2238066D01*
X2738723D01*
X2740056D01*
X2739390D01*
Y2236066D01*
X2740056Y2235400D01*
X2742056D02*
Y2238066D01*
X2743388Y2239399D01*
X2744721Y2238066D01*
Y2235400D01*
Y2237399D01*
X2742056D01*
X2746054Y2235400D02*
Y2238066D01*
X2748054D01*
X2748720Y2237399D01*
Y2235400D01*
X2751386Y2234067D02*
X2752052D01*
X2752719Y2234734D01*
Y2238066D01*
X2750719D01*
X2750053Y2237399D01*
Y2236066D01*
X2750719Y2235400D01*
X2752719D01*
X2754052D02*
X2755384D01*
X2754718D01*
Y2239399D01*
X2754052D01*
X2759383Y2235400D02*
X2758050D01*
X2757384Y2236066D01*
Y2237399D01*
X2758050Y2238066D01*
X2759383D01*
X2760050Y2237399D01*
Y2236733D01*
X2757384D01*
X2761383Y2237399D02*
X2764048D01*
X2765381Y2235400D02*
Y2239399D01*
X2767381D01*
X2768047Y2238732D01*
Y2237399D01*
X2767381Y2236733D01*
X2765381D01*
X2772046Y2238732D02*
X2771379Y2239399D01*
X2770046D01*
X2769380Y2238732D01*
Y2236066D01*
X2770046Y2235400D01*
X2771379D01*
X2772046Y2236066D01*
X2773379Y2239399D02*
Y2235400D01*
X2775378D01*
X2776044Y2236066D01*
Y2236733D01*
X2775378Y2237399D01*
X2773379D01*
X2775378D01*
X2776044Y2238066D01*
Y2238732D01*
X2775378Y2239399D01*
X2773379D01*
X2777377Y2237399D02*
X2780043D01*
X2784042Y2239399D02*
X2781376D01*
Y2237399D01*
X2782709Y2238066D01*
X2783376D01*
X2784042Y2237399D01*
Y2236066D01*
X2783376Y2235400D01*
X2782043D01*
X2781376Y2236066D01*
X2785375Y2238732D02*
X2786041Y2239399D01*
X2787374D01*
X2788041Y2238732D01*
Y2236066D01*
X2787374Y2235400D01*
X2786041D01*
X2785375Y2236066D01*
Y2238732D01*
X2791373Y2239399D02*
X2790040D01*
X2789374Y2238732D01*
Y2236066D01*
X2790040Y2235400D01*
X2791373D01*
X2792039Y2236066D01*
Y2238732D01*
X2791373Y2239399D01*
X2793372D02*
Y2235400D01*
Y2237399D01*
X2794039Y2238066D01*
X2795372D01*
X2796038Y2237399D01*
Y2235400D01*
X2797371D02*
Y2238066D01*
X2798037D01*
X2798704Y2237399D01*
Y2235400D01*
Y2237399D01*
X2799370Y2238066D01*
X2800037Y2237399D01*
Y2235400D01*
X2801370Y2237399D02*
X2804036D01*
X2805368Y2239399D02*
X2808034D01*
X2806701D01*
Y2235400D01*
X2811366D02*
X2810034D01*
X2809367Y2236066D01*
Y2237399D01*
X2810034Y2238066D01*
X2811366D01*
X2812033Y2237399D01*
Y2236733D01*
X2809367D01*
X2813366Y2238066D02*
Y2235400D01*
Y2236733D01*
X2814032Y2237399D01*
X2814699Y2238066D01*
X2815365D01*
X2817365Y2235400D02*
Y2238066D01*
X2818031D01*
X2818697Y2237399D01*
Y2235400D01*
Y2237399D01*
X2819364Y2238066D01*
X2820030Y2237399D01*
Y2235400D01*
X2821363D02*
X2822696D01*
X2822030D01*
Y2238066D01*
X2821363D01*
X2824696Y2235400D02*
Y2238066D01*
X2826695D01*
X2827361Y2237399D01*
Y2235400D01*
X2829361Y2238066D02*
X2830694D01*
X2831360Y2237399D01*
Y2235400D01*
X2829361D01*
X2828694Y2236066D01*
X2829361Y2236733D01*
X2831360D01*
X2833359Y2238732D02*
Y2238066D01*
X2832693D01*
X2834026D01*
X2833359D01*
Y2236066D01*
X2834026Y2235400D01*
X2836025D02*
X2837358D01*
X2836692D01*
Y2238066D01*
X2836025D01*
X2840024Y2235400D02*
X2841357D01*
X2842023Y2236066D01*
Y2237399D01*
X2841357Y2238066D01*
X2840024D01*
X2839357Y2237399D01*
Y2236066D01*
X2840024Y2235400D01*
X2843356D02*
Y2238066D01*
X2845355D01*
X2846022Y2237399D01*
Y2235400D01*
X2707400Y2250649D02*
Y2246650D01*
X2709399D01*
X2710066Y2247316D01*
Y2247983D01*
X2709399Y2248649D01*
X2707400D01*
X2709399D01*
X2710066Y2249316D01*
Y2249982D01*
X2709399Y2250649D01*
X2707400D01*
X2711399Y2246650D02*
Y2250649D01*
X2714064Y2246650D01*
Y2250649D01*
X2718063Y2249982D02*
X2717397Y2250649D01*
X2716064D01*
X2715397Y2249982D01*
Y2247316D01*
X2716064Y2246650D01*
X2717397D01*
X2718063Y2247316D01*
X2710066Y2261899D02*
X2707400D01*
Y2259899D01*
X2708733Y2260566D01*
X2709399D01*
X2710066Y2259899D01*
Y2258566D01*
X2709399Y2257900D01*
X2708066D01*
X2707400Y2258566D01*
X2714064Y2257900D02*
X2711399D01*
X2714064Y2260566D01*
Y2261232D01*
X2713398Y2261899D01*
X2712065D01*
X2711399Y2261232D01*
X2718063Y2257900D02*
X2715397D01*
X2718063Y2260566D01*
Y2261232D01*
X2717397Y2261899D01*
X2716064D01*
X2715397Y2261232D01*
X2719396Y2261899D02*
X2722062D01*
Y2261232D01*
X2719396Y2258566D01*
Y2257900D01*
X2723395D02*
X2724728D01*
X2724061D01*
Y2261899D01*
X2723395Y2261232D01*
X2729393Y2261899D02*
X2728060Y2261232D01*
X2726727Y2259899D01*
Y2258566D01*
X2727394Y2257900D01*
X2728727D01*
X2729393Y2258566D01*
Y2259233D01*
X2728727Y2259899D01*
X2726727D01*
X2730726Y2257900D02*
X2732059D01*
X2731392D01*
Y2261899D01*
X2730726Y2261232D01*
X2734058Y2259899D02*
X2736724D01*
X2738057Y2257900D02*
X2739390D01*
X2738723D01*
Y2261899D01*
X2738057Y2261232D01*
X2710066Y2272482D02*
X2709399Y2273149D01*
X2708066D01*
X2707400Y2272482D01*
Y2269816D01*
X2708066Y2269150D01*
X2709399D01*
X2710066Y2269816D01*
X2713398Y2273149D02*
X2712065D01*
X2711399Y2272482D01*
Y2269816D01*
X2712065Y2269150D01*
X2713398D01*
X2714064Y2269816D01*
Y2272482D01*
X2713398Y2273149D01*
X2715397Y2269150D02*
Y2273149D01*
X2718063Y2269150D01*
Y2273149D01*
X2719396Y2272482D02*
X2720063Y2273149D01*
X2721395D01*
X2722062Y2272482D01*
Y2271816D01*
X2721395Y2271149D01*
X2722062Y2270483D01*
Y2269816D01*
X2721395Y2269150D01*
X2720063D01*
X2719396Y2269816D01*
Y2270483D01*
X2720063Y2271149D01*
X2719396Y2271816D01*
Y2272482D01*
X2720063Y2271149D02*
X2721395D01*
X2565400Y2237399D02*
Y2233400D01*
X2567399D01*
X2568066Y2234066D01*
Y2234733D01*
X2567399Y2235399D01*
X2565400D01*
X2567399D01*
X2568066Y2236066D01*
Y2236732D01*
X2567399Y2237399D01*
X2565400D01*
X2569399Y2233400D02*
Y2237399D01*
X2572065Y2233400D01*
Y2237399D01*
X2576063Y2236732D02*
X2575397Y2237399D01*
X2574064D01*
X2573397Y2236732D01*
Y2234066D01*
X2574064Y2233400D01*
X2575397D01*
X2576063Y2234066D01*
X2577396Y2235399D02*
X2580062D01*
X2581395Y2233400D02*
Y2237399D01*
X2583394D01*
X2584061Y2236732D01*
Y2235399D01*
X2583394Y2234733D01*
X2581395D01*
X2582728D02*
X2584061Y2233400D01*
X2585394D02*
X2586727D01*
X2586060D01*
Y2236066D01*
X2585394D01*
X2590059Y2232067D02*
X2590725D01*
X2591392Y2232734D01*
Y2236066D01*
X2589392D01*
X2588726Y2235399D01*
Y2234066D01*
X2589392Y2233400D01*
X2591392D01*
X2592724Y2237399D02*
Y2233400D01*
Y2235399D01*
X2593391Y2236066D01*
X2594724D01*
X2595390Y2235399D01*
Y2233400D01*
X2597390Y2236732D02*
Y2236066D01*
X2596723D01*
X2598056D01*
X2597390D01*
Y2234066D01*
X2598056Y2233400D01*
X2600056D02*
Y2236066D01*
X2601388Y2237399D01*
X2602721Y2236066D01*
Y2233400D01*
Y2235399D01*
X2600056D01*
X2604054Y2233400D02*
Y2236066D01*
X2606054D01*
X2606720Y2235399D01*
Y2233400D01*
X2609386Y2232067D02*
X2610052D01*
X2610719Y2232734D01*
Y2236066D01*
X2608719D01*
X2608053Y2235399D01*
Y2234066D01*
X2608719Y2233400D01*
X2610719D01*
X2612052D02*
X2613384D01*
X2612718D01*
Y2237399D01*
X2612052D01*
X2617383Y2233400D02*
X2616050D01*
X2615384Y2234066D01*
Y2235399D01*
X2616050Y2236066D01*
X2617383D01*
X2618050Y2235399D01*
Y2234733D01*
X2615384D01*
X2619383Y2235399D02*
X2622048D01*
X2623381Y2233400D02*
Y2237399D01*
X2625381D01*
X2626047Y2236732D01*
Y2235399D01*
X2625381Y2234733D01*
X2623381D01*
X2630046Y2236732D02*
X2629379Y2237399D01*
X2628046D01*
X2627380Y2236732D01*
Y2234066D01*
X2628046Y2233400D01*
X2629379D01*
X2630046Y2234066D01*
X2631379Y2237399D02*
Y2233400D01*
X2633378D01*
X2634044Y2234066D01*
Y2234733D01*
X2633378Y2235399D01*
X2631379D01*
X2633378D01*
X2634044Y2236066D01*
Y2236732D01*
X2633378Y2237399D01*
X2631379D01*
X2635377Y2235399D02*
X2638043D01*
X2642042Y2237399D02*
X2639376D01*
Y2235399D01*
X2640709Y2236066D01*
X2641376D01*
X2642042Y2235399D01*
Y2234066D01*
X2641376Y2233400D01*
X2640043D01*
X2639376Y2234066D01*
X2643375Y2236732D02*
X2644041Y2237399D01*
X2645374D01*
X2646041Y2236732D01*
Y2234066D01*
X2645374Y2233400D01*
X2644041D01*
X2643375Y2234066D01*
Y2236732D01*
X2649373Y2237399D02*
X2648040D01*
X2647374Y2236732D01*
Y2234066D01*
X2648040Y2233400D01*
X2649373D01*
X2650039Y2234066D01*
Y2236732D01*
X2649373Y2237399D01*
X2651372D02*
Y2233400D01*
Y2235399D01*
X2652039Y2236066D01*
X2653372D01*
X2654038Y2235399D01*
Y2233400D01*
X2655371D02*
Y2236066D01*
X2656037D01*
X2656704Y2235399D01*
Y2233400D01*
Y2235399D01*
X2657370Y2236066D01*
X2658037Y2235399D01*
Y2233400D01*
X2659370Y2235399D02*
X2662036D01*
X2663368Y2237399D02*
X2666034D01*
X2664701D01*
Y2233400D01*
X2669366D02*
X2668034D01*
X2667367Y2234066D01*
Y2235399D01*
X2668034Y2236066D01*
X2669366D01*
X2670033Y2235399D01*
Y2234733D01*
X2667367D01*
X2671366Y2236066D02*
Y2233400D01*
Y2234733D01*
X2672032Y2235399D01*
X2672699Y2236066D01*
X2673365D01*
X2675364Y2233400D02*
Y2236066D01*
X2676031D01*
X2676697Y2235399D01*
Y2233400D01*
Y2235399D01*
X2677364Y2236066D01*
X2678030Y2235399D01*
Y2233400D01*
X2679363D02*
X2680696D01*
X2680030D01*
Y2236066D01*
X2679363D01*
X2682696Y2233400D02*
Y2236066D01*
X2684695D01*
X2685361Y2235399D01*
Y2233400D01*
X2687361Y2236066D02*
X2688694D01*
X2689360Y2235399D01*
Y2233400D01*
X2687361D01*
X2686694Y2234066D01*
X2687361Y2234733D01*
X2689360D01*
X2691359Y2236732D02*
Y2236066D01*
X2690693D01*
X2692026D01*
X2691359D01*
Y2234066D01*
X2692026Y2233400D01*
X2694025D02*
X2695358D01*
X2694692D01*
Y2236066D01*
X2694025D01*
X2698024Y2233400D02*
X2699357D01*
X2700023Y2234066D01*
Y2235399D01*
X2699357Y2236066D01*
X2698024D01*
X2697357Y2235399D01*
Y2234066D01*
X2698024Y2233400D01*
X2701356D02*
Y2236066D01*
X2703355D01*
X2704022Y2235399D01*
Y2233400D01*
X2565400Y2248649D02*
Y2244650D01*
X2567399D01*
X2568066Y2245316D01*
Y2245983D01*
X2567399Y2246649D01*
X2565400D01*
X2567399D01*
X2568066Y2247316D01*
Y2247982D01*
X2567399Y2248649D01*
X2565400D01*
X2569399Y2244650D02*
Y2248649D01*
X2572065Y2244650D01*
Y2248649D01*
X2576063Y2247982D02*
X2575397Y2248649D01*
X2574064D01*
X2573397Y2247982D01*
Y2245316D01*
X2574064Y2244650D01*
X2575397D01*
X2576063Y2245316D01*
X2568066Y2259899D02*
X2565400D01*
Y2257899D01*
X2566733Y2258566D01*
X2567399D01*
X2568066Y2257899D01*
Y2256566D01*
X2567399Y2255900D01*
X2566066D01*
X2565400Y2256566D01*
X2572065Y2255900D02*
X2569399D01*
X2572065Y2258566D01*
Y2259232D01*
X2571398Y2259899D01*
X2570065D01*
X2569399Y2259232D01*
X2576063Y2255900D02*
X2573397D01*
X2576063Y2258566D01*
Y2259232D01*
X2575397Y2259899D01*
X2574064D01*
X2573397Y2259232D01*
X2577396Y2259899D02*
X2580062D01*
Y2259232D01*
X2577396Y2256566D01*
Y2255900D01*
X2581395D02*
X2582728D01*
X2582061D01*
Y2259899D01*
X2581395Y2259232D01*
X2587393Y2259899D02*
X2586060Y2259232D01*
X2584727Y2257899D01*
Y2256566D01*
X2585394Y2255900D01*
X2586727D01*
X2587393Y2256566D01*
Y2257233D01*
X2586727Y2257899D01*
X2584727D01*
X2588726Y2255900D02*
X2590059D01*
X2589392D01*
Y2259899D01*
X2588726Y2259232D01*
X2592058Y2257899D02*
X2594724D01*
X2596057Y2255900D02*
X2597390D01*
X2596723D01*
Y2259899D01*
X2596057Y2259232D01*
X2568066Y2270482D02*
X2567399Y2271149D01*
X2566066D01*
X2565400Y2270482D01*
Y2267816D01*
X2566066Y2267150D01*
X2567399D01*
X2568066Y2267816D01*
X2571398Y2271149D02*
X2570065D01*
X2569399Y2270482D01*
Y2267816D01*
X2570065Y2267150D01*
X2571398D01*
X2572065Y2267816D01*
Y2270482D01*
X2571398Y2271149D01*
X2573397Y2267150D02*
Y2271149D01*
X2576063Y2267150D01*
Y2271149D01*
X2580062D02*
X2578729Y2270482D01*
X2577396Y2269149D01*
Y2267816D01*
X2578063Y2267150D01*
X2579395D01*
X2580062Y2267816D01*
Y2268483D01*
X2579395Y2269149D01*
X2577396D01*
X2475400Y2237399D02*
Y2233400D01*
X2477399D01*
X2478066Y2234066D01*
Y2234733D01*
X2477399Y2235399D01*
X2475400D01*
X2477399D01*
X2478066Y2236066D01*
Y2236732D01*
X2477399Y2237399D01*
X2475400D01*
X2479399Y2233400D02*
Y2237399D01*
X2482064Y2233400D01*
Y2237399D01*
X2486063Y2236732D02*
X2485397Y2237399D01*
X2484064D01*
X2483397Y2236732D01*
Y2234066D01*
X2484064Y2233400D01*
X2485397D01*
X2486063Y2234066D01*
X2487396Y2235399D02*
X2490062D01*
X2491395Y2233400D02*
Y2237399D01*
X2493394D01*
X2494061Y2236732D01*
Y2235399D01*
X2493394Y2234733D01*
X2491395D01*
X2492728D02*
X2494061Y2233400D01*
X2495394D02*
X2496726D01*
X2496060D01*
Y2236066D01*
X2495394D01*
X2500059Y2232067D02*
X2500725D01*
X2501392Y2232734D01*
Y2236066D01*
X2499392D01*
X2498726Y2235399D01*
Y2234066D01*
X2499392Y2233400D01*
X2501392D01*
X2502724Y2237399D02*
Y2233400D01*
Y2235399D01*
X2503391Y2236066D01*
X2504724D01*
X2505390Y2235399D01*
Y2233400D01*
X2507390Y2236732D02*
Y2236066D01*
X2506723D01*
X2508056D01*
X2507390D01*
Y2234066D01*
X2508056Y2233400D01*
X2510056D02*
Y2236066D01*
X2511388Y2237399D01*
X2512721Y2236066D01*
Y2233400D01*
Y2235399D01*
X2510056D01*
X2514054Y2233400D02*
Y2236066D01*
X2516054D01*
X2516720Y2235399D01*
Y2233400D01*
X2519386Y2232067D02*
X2520052D01*
X2520719Y2232734D01*
Y2236066D01*
X2518719D01*
X2518053Y2235399D01*
Y2234066D01*
X2518719Y2233400D01*
X2520719D01*
X2522052D02*
X2523384D01*
X2522718D01*
Y2237399D01*
X2522052D01*
X2527383Y2233400D02*
X2526050D01*
X2525384Y2234066D01*
Y2235399D01*
X2526050Y2236066D01*
X2527383D01*
X2528050Y2235399D01*
Y2234733D01*
X2525384D01*
X2529383Y2235399D02*
X2532048D01*
X2533381Y2233400D02*
Y2237399D01*
X2535381D01*
X2536047Y2236732D01*
Y2235399D01*
X2535381Y2234733D01*
X2533381D01*
X2540046Y2236732D02*
X2539379Y2237399D01*
X2538046D01*
X2537380Y2236732D01*
Y2234066D01*
X2538046Y2233400D01*
X2539379D01*
X2540046Y2234066D01*
X2541379Y2237399D02*
Y2233400D01*
X2543378D01*
X2544044Y2234066D01*
Y2234733D01*
X2543378Y2235399D01*
X2541379D01*
X2543378D01*
X2544044Y2236066D01*
Y2236732D01*
X2543378Y2237399D01*
X2541379D01*
X2545377Y2235399D02*
X2548043D01*
X2552042Y2237399D02*
X2549376D01*
Y2235399D01*
X2550709Y2236066D01*
X2551376D01*
X2552042Y2235399D01*
Y2234066D01*
X2551376Y2233400D01*
X2550043D01*
X2549376Y2234066D01*
X2553375Y2236732D02*
X2554041Y2237399D01*
X2555374D01*
X2556041Y2236732D01*
Y2234066D01*
X2555374Y2233400D01*
X2554041D01*
X2553375Y2234066D01*
Y2236732D01*
X2559373Y2237399D02*
X2558040D01*
X2557374Y2236732D01*
Y2234066D01*
X2558040Y2233400D01*
X2559373D01*
X2560039Y2234066D01*
Y2236732D01*
X2559373Y2237399D01*
X2561372D02*
Y2233400D01*
Y2235399D01*
X2562039Y2236066D01*
X2563372D01*
X2564038Y2235399D01*
Y2233400D01*
X2565371D02*
Y2236066D01*
X2566037D01*
X2566704Y2235399D01*
Y2233400D01*
Y2235399D01*
X2567370Y2236066D01*
X2568037Y2235399D01*
Y2233400D01*
X2569370Y2235399D02*
X2572035D01*
X2573368Y2237399D02*
X2576034D01*
X2574701D01*
Y2233400D01*
X2579366D02*
X2578034D01*
X2577367Y2234066D01*
Y2235399D01*
X2578034Y2236066D01*
X2579366D01*
X2580033Y2235399D01*
Y2234733D01*
X2577367D01*
X2581366Y2236066D02*
Y2233400D01*
Y2234733D01*
X2582032Y2235399D01*
X2582699Y2236066D01*
X2583365D01*
X2585365Y2233400D02*
Y2236066D01*
X2586031D01*
X2586697Y2235399D01*
Y2233400D01*
Y2235399D01*
X2587364Y2236066D01*
X2588030Y2235399D01*
Y2233400D01*
X2589363D02*
X2590696D01*
X2590030D01*
Y2236066D01*
X2589363D01*
X2592695Y2233400D02*
Y2236066D01*
X2594695D01*
X2595361Y2235399D01*
Y2233400D01*
X2597361Y2236066D02*
X2598694D01*
X2599360Y2235399D01*
Y2233400D01*
X2597361D01*
X2596694Y2234066D01*
X2597361Y2234733D01*
X2599360D01*
X2601359Y2236732D02*
Y2236066D01*
X2600693D01*
X2602026D01*
X2601359D01*
Y2234066D01*
X2602026Y2233400D01*
X2604025D02*
X2605358D01*
X2604692D01*
Y2236066D01*
X2604025D01*
X2608024Y2233400D02*
X2609357D01*
X2610023Y2234066D01*
Y2235399D01*
X2609357Y2236066D01*
X2608024D01*
X2607357Y2235399D01*
Y2234066D01*
X2608024Y2233400D01*
X2611356D02*
Y2236066D01*
X2613355D01*
X2614022Y2235399D01*
Y2233400D01*
X2475400Y2248649D02*
Y2244650D01*
X2477399D01*
X2478066Y2245316D01*
Y2245983D01*
X2477399Y2246649D01*
X2475400D01*
X2477399D01*
X2478066Y2247316D01*
Y2247982D01*
X2477399Y2248649D01*
X2475400D01*
X2479399Y2244650D02*
Y2248649D01*
X2482064Y2244650D01*
Y2248649D01*
X2486063Y2247982D02*
X2485397Y2248649D01*
X2484064D01*
X2483397Y2247982D01*
Y2245316D01*
X2484064Y2244650D01*
X2485397D01*
X2486063Y2245316D01*
X2478066Y2259899D02*
X2475400D01*
Y2257899D01*
X2476733Y2258566D01*
X2477399D01*
X2478066Y2257899D01*
Y2256566D01*
X2477399Y2255900D01*
X2476066D01*
X2475400Y2256566D01*
X2482064Y2255900D02*
X2479399D01*
X2482064Y2258566D01*
Y2259232D01*
X2481398Y2259899D01*
X2480065D01*
X2479399Y2259232D01*
X2486063Y2255900D02*
X2483397D01*
X2486063Y2258566D01*
Y2259232D01*
X2485397Y2259899D01*
X2484064D01*
X2483397Y2259232D01*
X2487396Y2259899D02*
X2490062D01*
Y2259232D01*
X2487396Y2256566D01*
Y2255900D01*
X2491395D02*
X2492728D01*
X2492061D01*
Y2259899D01*
X2491395Y2259232D01*
X2497393Y2259899D02*
X2496060Y2259232D01*
X2494727Y2257899D01*
Y2256566D01*
X2495394Y2255900D01*
X2496726D01*
X2497393Y2256566D01*
Y2257233D01*
X2496726Y2257899D01*
X2494727D01*
X2498726Y2255900D02*
X2500059D01*
X2499392D01*
Y2259899D01*
X2498726Y2259232D01*
X2502058Y2257899D02*
X2504724D01*
X2506057Y2255900D02*
X2507390D01*
X2506723D01*
Y2259899D01*
X2506057Y2259232D01*
X2478066Y2270482D02*
X2477399Y2271149D01*
X2476066D01*
X2475400Y2270482D01*
Y2267816D01*
X2476066Y2267150D01*
X2477399D01*
X2478066Y2267816D01*
X2481398Y2271149D02*
X2480065D01*
X2479399Y2270482D01*
Y2267816D01*
X2480065Y2267150D01*
X2481398D01*
X2482064Y2267816D01*
Y2270482D01*
X2481398Y2271149D01*
X2483397Y2267150D02*
Y2271149D01*
X2486063Y2267150D01*
Y2271149D01*
X2487396D02*
X2490062D01*
Y2270482D01*
X2487396Y2267816D01*
Y2267150D01*
X2385400Y2237399D02*
Y2233400D01*
X2387399D01*
X2388066Y2234066D01*
Y2234733D01*
X2387399Y2235399D01*
X2385400D01*
X2387399D01*
X2388066Y2236066D01*
Y2236732D01*
X2387399Y2237399D01*
X2385400D01*
X2389399Y2233400D02*
Y2237399D01*
X2392064Y2233400D01*
Y2237399D01*
X2396063Y2236732D02*
X2395397Y2237399D01*
X2394064D01*
X2393397Y2236732D01*
Y2234066D01*
X2394064Y2233400D01*
X2395397D01*
X2396063Y2234066D01*
X2397396Y2235399D02*
X2400062D01*
X2401395Y2233400D02*
Y2237399D01*
X2403394D01*
X2404061Y2236732D01*
Y2235399D01*
X2403394Y2234733D01*
X2401395D01*
X2402728D02*
X2404061Y2233400D01*
X2405393D02*
X2406726D01*
X2406060D01*
Y2236066D01*
X2405393D01*
X2410059Y2232067D02*
X2410725D01*
X2411392Y2232734D01*
Y2236066D01*
X2409392D01*
X2408726Y2235399D01*
Y2234066D01*
X2409392Y2233400D01*
X2411392D01*
X2412724Y2237399D02*
Y2233400D01*
Y2235399D01*
X2413391Y2236066D01*
X2414724D01*
X2415390Y2235399D01*
Y2233400D01*
X2417390Y2236732D02*
Y2236066D01*
X2416723D01*
X2418056D01*
X2417390D01*
Y2234066D01*
X2418056Y2233400D01*
X2420056D02*
Y2236066D01*
X2421388Y2237399D01*
X2422721Y2236066D01*
Y2233400D01*
Y2235399D01*
X2420056D01*
X2424054Y2233400D02*
Y2236066D01*
X2426054D01*
X2426720Y2235399D01*
Y2233400D01*
X2429386Y2232067D02*
X2430052D01*
X2430719Y2232734D01*
Y2236066D01*
X2428719D01*
X2428053Y2235399D01*
Y2234066D01*
X2428719Y2233400D01*
X2430719D01*
X2432052D02*
X2433385D01*
X2432718D01*
Y2237399D01*
X2432052D01*
X2437383Y2233400D02*
X2436050D01*
X2435384Y2234066D01*
Y2235399D01*
X2436050Y2236066D01*
X2437383D01*
X2438050Y2235399D01*
Y2234733D01*
X2435384D01*
X2439383Y2235399D02*
X2442048D01*
X2443381Y2233400D02*
Y2237399D01*
X2445381D01*
X2446047Y2236732D01*
Y2235399D01*
X2445381Y2234733D01*
X2443381D01*
X2450046Y2236732D02*
X2449379Y2237399D01*
X2448046D01*
X2447380Y2236732D01*
Y2234066D01*
X2448046Y2233400D01*
X2449379D01*
X2450046Y2234066D01*
X2451379Y2237399D02*
Y2233400D01*
X2453378D01*
X2454045Y2234066D01*
Y2234733D01*
X2453378Y2235399D01*
X2451379D01*
X2453378D01*
X2454045Y2236066D01*
Y2236732D01*
X2453378Y2237399D01*
X2451379D01*
X2455377Y2235399D02*
X2458043D01*
X2462042Y2237399D02*
X2459376D01*
Y2235399D01*
X2460709Y2236066D01*
X2461375D01*
X2462042Y2235399D01*
Y2234066D01*
X2461375Y2233400D01*
X2460043D01*
X2459376Y2234066D01*
X2463375Y2236732D02*
X2464041Y2237399D01*
X2465374D01*
X2466041Y2236732D01*
Y2234066D01*
X2465374Y2233400D01*
X2464041D01*
X2463375Y2234066D01*
Y2236732D01*
X2469373Y2237399D02*
X2468040D01*
X2467374Y2236732D01*
Y2234066D01*
X2468040Y2233400D01*
X2469373D01*
X2470039Y2234066D01*
Y2236732D01*
X2469373Y2237399D01*
X2471372D02*
Y2233400D01*
Y2235399D01*
X2472039Y2236066D01*
X2473372D01*
X2474038Y2235399D01*
Y2233400D01*
X2475371D02*
Y2236066D01*
X2476037D01*
X2476704Y2235399D01*
Y2233400D01*
Y2235399D01*
X2477370Y2236066D01*
X2478037Y2235399D01*
Y2233400D01*
X2479370Y2235399D02*
X2482035D01*
X2483368Y2237399D02*
X2486034D01*
X2484701D01*
Y2233400D01*
X2489367D02*
X2488034D01*
X2487367Y2234066D01*
Y2235399D01*
X2488034Y2236066D01*
X2489367D01*
X2490033Y2235399D01*
Y2234733D01*
X2487367D01*
X2491366Y2236066D02*
Y2233400D01*
Y2234733D01*
X2492032Y2235399D01*
X2492699Y2236066D01*
X2493365D01*
X2495365Y2233400D02*
Y2236066D01*
X2496031D01*
X2496697Y2235399D01*
Y2233400D01*
Y2235399D01*
X2497364Y2236066D01*
X2498030Y2235399D01*
Y2233400D01*
X2499363D02*
X2500696D01*
X2500030D01*
Y2236066D01*
X2499363D01*
X2502695Y2233400D02*
Y2236066D01*
X2504695D01*
X2505361Y2235399D01*
Y2233400D01*
X2507361Y2236066D02*
X2508694D01*
X2509360Y2235399D01*
Y2233400D01*
X2507361D01*
X2506694Y2234066D01*
X2507361Y2234733D01*
X2509360D01*
X2511359Y2236732D02*
Y2236066D01*
X2510693D01*
X2512026D01*
X2511359D01*
Y2234066D01*
X2512026Y2233400D01*
X2514025D02*
X2515358D01*
X2514692D01*
Y2236066D01*
X2514025D01*
X2518024Y2233400D02*
X2519357D01*
X2520023Y2234066D01*
Y2235399D01*
X2519357Y2236066D01*
X2518024D01*
X2517357Y2235399D01*
Y2234066D01*
X2518024Y2233400D01*
X2521356D02*
Y2236066D01*
X2523355D01*
X2524022Y2235399D01*
Y2233400D01*
X2385400Y2248649D02*
Y2244650D01*
X2387399D01*
X2388066Y2245316D01*
Y2245983D01*
X2387399Y2246649D01*
X2385400D01*
X2387399D01*
X2388066Y2247316D01*
Y2247982D01*
X2387399Y2248649D01*
X2385400D01*
X2389399Y2244650D02*
Y2248649D01*
X2392064Y2244650D01*
Y2248649D01*
X2396063Y2247982D02*
X2395397Y2248649D01*
X2394064D01*
X2393397Y2247982D01*
Y2245316D01*
X2394064Y2244650D01*
X2395397D01*
X2396063Y2245316D01*
X2388066Y2259899D02*
X2385400D01*
Y2257899D01*
X2386733Y2258566D01*
X2387399D01*
X2388066Y2257899D01*
Y2256566D01*
X2387399Y2255900D01*
X2386066D01*
X2385400Y2256566D01*
X2392064Y2255900D02*
X2389399D01*
X2392064Y2258566D01*
Y2259232D01*
X2391398Y2259899D01*
X2390065D01*
X2389399Y2259232D01*
X2396063Y2255900D02*
X2393397D01*
X2396063Y2258566D01*
Y2259232D01*
X2395397Y2259899D01*
X2394064D01*
X2393397Y2259232D01*
X2397396Y2259899D02*
X2400062D01*
Y2259232D01*
X2397396Y2256566D01*
Y2255900D01*
X2401395D02*
X2402728D01*
X2402061D01*
Y2259899D01*
X2401395Y2259232D01*
X2407393Y2259899D02*
X2406060Y2259232D01*
X2404727Y2257899D01*
Y2256566D01*
X2405393Y2255900D01*
X2406726D01*
X2407393Y2256566D01*
Y2257233D01*
X2406726Y2257899D01*
X2404727D01*
X2408726Y2255900D02*
X2410059D01*
X2409392D01*
Y2259899D01*
X2408726Y2259232D01*
X2412058Y2257899D02*
X2414724D01*
X2416057Y2255900D02*
X2417390D01*
X2416723D01*
Y2259899D01*
X2416057Y2259232D01*
X2388066Y2270482D02*
X2387399Y2271149D01*
X2386066D01*
X2385400Y2270482D01*
Y2267816D01*
X2386066Y2267150D01*
X2387399D01*
X2388066Y2267816D01*
X2391398Y2271149D02*
X2390065D01*
X2389399Y2270482D01*
Y2267816D01*
X2390065Y2267150D01*
X2391398D01*
X2392064Y2267816D01*
Y2270482D01*
X2391398Y2271149D01*
X2393397Y2267150D02*
Y2271149D01*
X2396063Y2267150D01*
Y2271149D01*
X2397396Y2267150D02*
X2398729D01*
X2398063D01*
Y2271149D01*
X2397396Y2270482D01*
M02*
